<?xml version="1.0" encoding="UTF-8" standalone="no"?>
<!DOCTYPE svg PUBLIC "-//W3C//DTD SVG 1.1//EN" "http://www.w3.org/Graphics/SVG/1.1/DTD/svg11.dtd">
<svg width="640" height="640" viewBox="0 0 640 640" version="1.1" xmlns="http://www.w3.org/2000/svg">
<rect x="0" y="0" width="640" height="640" style="fill:white;"/>
<circle cx="320.0" cy="320.0" r="64.0" fill="rgb(0,230,0)" />
<circle cx="317.03003" cy="320.42337" r="35.0" fill="rgb(0,130,0)" />
<circle cx="325.76102" cy="318.32352" r="31.0" fill="rgb(0,105,0)" />
<circle cx="311.79984" cy="323.70908" r="29.0" fill="rgb(0,0,255)" />
<circle cx="330.12625" cy="313.56113" r="27.0" fill="rgb(0,0,230)" />
<circle cx="308.60468" cy="329.75433" r="27.0" fill="rgb(0,0,230)" />
<circle cx="331.8857" cy="306.48224" r="25.0" fill="rgb(0,0,205)" />
<circle cx="308.49768" cy="337.56976" r="25.0" fill="rgb(0,0,205)" />
<circle cx="330.1803" cy="298.2661" r="25.0" fill="rgb(0,0,205)" />
<circle cx="312.11224" cy="345.82214" r="25.0" fill="rgb(0,0,205)" />
<circle cx="324.62753" cy="290.35904" r="23.0" fill="rgb(0,0,180)" />
<circle cx="319.56186" cy="352.9971" r="23.0" fill="rgb(0,0,180)" />
<circle cx="315.3933" cy="284.29596" r="23.0" fill="rgb(0,0,180)" />
<circle cx="330.39908" cy="357.588" r="23.0" fill="rgb(0,0,180)" />
<circle cx="303.20062" cy="281.5061" r="23.0" fill="rgb(0,0,180)" />
<circle cx="343.6395" cy="358.29065" r="21.0" fill="rgb(0,0,155)" />
<circle cx="289.27307" cy="283.12378" r="21.0" fill="rgb(0,0,155)" />
<circle cx="357.84985" cy="354.1817" r="21.0" fill="rgb(0,0,155)" />
<circle cx="275.2173" cy="289.82538" r="21.0" fill="rgb(0,0,155)" />
<circle cx="371.29242" cy="344.8614" r="21.0" fill="rgb(0,0,155)" />
<circle cx="262.85522" cy="301.71136" r="21.0" fill="rgb(0,0,155)" />
<circle cx="382.11148" cy="330.5434" r="19.0" fill="rgb(0,0,130)" />
<circle cx="254.02327" cy="318.24762" r="19.0" fill="rgb(0,0,130)" />
<circle cx="388.54395" cy="312.07983" r="17.0" fill="rgb(0,0,105)" />
<circle cx="250.35796" cy="338.27527" r="17.0" fill="rgb(0,0,105)" />
<circle cx="389.13135" cy="290.91638" r="17.0" fill="rgb(0,0,105)" />
<circle cx="253.09135" cy="360.09033" r="17.0" fill="rgb(0,0,105)" />
<circle cx="382.91156" cy="268.97906" r="17.0" fill="rgb(0,0,105)" />
<circle cx="262.87802" cy="381.58798" r="15.0" fill="rgb(255,0,0)" />
<circle cx="369.56827" cy="248.50185" r="15.0" fill="rgb(255,0,0)" />
<circle cx="279.67337" cy="400.45972" r="15.0" fill="rgb(255,0,0)" />
<circle cx="349.52087" cy="231.80975" r="15.0" fill="rgb(255,0,0)" />
<circle cx="302.67868" cy="414.42444" r="15.0" fill="rgb(255,0,0)" />
<circle cx="323.94226" cy="221.07852" r="15.0" fill="rgb(255,0,0)" />
<circle cx="330.36176" cy="421.47235" r="13.0" fill="rgb(230,0,0)" />
<circle cx="294.6993" cy="218.0938" r="13.0" fill="rgb(230,0,0)" />
<circle cx="360.55502" cy="420.0964" r="13.0" fill="rgb(230,0,0)" />
<circle cx="264.2176" cy="224.03479" r="13.0" fill="rgb(230,0,0)" />
<circle cx="390.62537" cy="409.48776" r="13.0" fill="rgb(230,0,0)" />
<circle cx="235.28064" cy="239.30534" r="13.0" fill="rgb(230,0,0)" />
<circle cx="417.70172" cy="389.67334" r="13.0" fill="rgb(230,0,0)" />
<circle cx="210.77982" cy="263.4319" r="11.0" fill="rgb(205,0,0)" />
<circle cx="438.94202" cy="361.57886" r="11.0" fill="rgb(205,0,0)" />
<circle cx="193.4374" cy="295.04193" r="11.0" fill="rgb(205,0,0)" />
<circle cx="451.8139" cy="327.00702" r="11.0" fill="rgb(205,0,0)" />
<circle cx="185.52814" cy="331.92978" r="11.0" fill="rgb(205,0,0)" />
<circle cx="454.36356" cy="288.52878" r="11.0" fill="rgb(205,0,0)" />
<circle cx="188.62715" cy="371.20715" r="11.0" fill="rgb(205,0,0)" />
<circle cx="445.44522" cy="249.2929" r="11.0" fill="rgb(205,0,0)" />
<circle cx="203.40894" cy="409.52948" r="11.0" fill="rgb(205,0,0)" />
<circle cx="424.88763" cy="212.76854" r="11.0" fill="rgb(205,0,0)" />
<circle cx="229.52045" cy="443.37927" r="11.0" fill="rgb(205,0,0)" />
<circle cx="393.57776" cy="182.4416" r="11.0" fill="rgb(205,0,0)" />
<circle cx="265.54333" cy="469.38364" r="11.0" fill="rgb(205,0,0)" />
<circle cx="353.45013" cy="161.49104" r="11.0" fill="rgb(205,0,0)" />
<circle cx="309.0544" cy="484.63654" r="11.0" fill="rgb(205,0,0)" />
<circle cx="307.37714" cy="152.47488" r="11.0" fill="rgb(205,0,0)" />
<circle cx="356.783" cy="486.99704" r="7.0" fill="rgb(180,0,0)" />
<circle cx="258.9662" cy="157.05562" r="7.0" fill="rgb(180,0,0)" />
<circle cx="404.856" cy="475.33337" r="7.0" fill="rgb(180,0,0)" />
<circle cx="212.27719" cy="175.79253" r="7.0" fill="rgb(180,0,0)" />
<circle cx="449.11194" cy="449.6885" r="7.0" fill="rgb(180,0,0)" />
<circle cx="171.48308" cy="208.02354" r="7.0" fill="rgb(180,0,0)" />
<circle cx="485.4591" cy="411.3471" r="7.0" fill="rgb(180,0,0)" />
<circle cx="140.50117" cy="251.85184" r="7.0" fill="rgb(180,0,0)" />
<circle cx="510.24643" cy="362.79367" r="7.0" fill="rgb(180,0,0)" />
<circle cx="122.62793" cy="304.24344" r="5.0" fill="rgb(155,0,0)" />
<circle cx="520.6147" cy="307.56006" r="5.0" fill="rgb(155,0,0)" />
<circle cx="120.21042" cy="361.23254" r="5.0" fill="rgb(155,0,0)" />
<circle cx="514.79456" cy="249.97086" r="5.0" fill="rgb(155,0,0)" />
<circle cx="134.38573" cy="418.2209" r="5.0" fill="rgb(155,0,0)" />
<circle cx="492.32288" cy="194.80486" r="5.0" fill="rgb(155,0,0)" />
<circle cx="164.91522" cy="470.34863" r="5.0" fill="rgb(155,0,0)" />
<circle cx="454.1533" cy="146.89917" r="5.0" fill="rgb(155,0,0)" />
<circle cx="210.13255" cy="512.9071" r="5.0" fill="rgb(155,0,0)" />
<circle cx="402.64685" cy="110.72865" r="5.0" fill="rgb(155,0,0)" />
<circle cx="267.01544" cy="541.75806" r="5.0" fill="rgb(155,0,0)" />
<circle cx="341.43823" cy="89.99695" r="5.0" fill="rgb(155,0,0)" />
<circle cx="331.38025" cy="553.7231" r="5.0" fill="rgb(155,0,0)" />
<circle cx="275.18335" cy="87.275986" r="5.0" fill="rgb(155,0,0)" />
<circle cx="398.1875" cy="546.90686" r="5.0" fill="rgb(155,0,0)" />
<circle cx="209.20602" cy="103.72772" r="5.0" fill="rgb(155,0,0)" />
<circle cx="461.93646" cy="520.923" r="5.0" fill="rgb(155,0,0)" />
<circle cx="149.07031" cy="138.93637" r="5.0" fill="rgb(155,0,0)" />
<circle cx="517.11743" cy="476.99908" r="5.0" fill="rgb(155,0,0)" />
<circle cx="100.11258" cy="190.87013" r="5.0" fill="rgb(155,0,0)" />
<circle cx="558.6851" cy="417.94598" r="3.0" fill="rgb(130,0,0)" />
<circle cx="66.97304" cy="255.9816" r="3.0" fill="rgb(130,0,0)" />
<circle cx="582.5122" cy="347.98862" r="3.0" fill="rgb(130,0,0)" />
<circle cx="53.167053" cy="329.4433" r="3.0" fill="rgb(130,0,0)" />
<circle cx="585.78314" cy="272.4676" r="3.0" fill="rgb(130,0,0)" />
<circle cx="60.735413" cy="405.50363" r="3.0" fill="rgb(130,0,0)" />
<circle cx="567.2917" cy="197.43236" r="3.0" fill="rgb(130,0,0)" />
<circle cx="90.006805" cy="477.93707" r="3.0" fill="rgb(130,0,0)" />
<circle cx="527.6121" cy="129.15657" r="3.0" fill="rgb(130,0,0)" />
<circle cx="139.49739" cy="540.5534" r="3.0" fill="rgb(130,0,0)" />
<circle cx="469.12512" cy="73.61473" r="3.0" fill="rgb(130,0,0)" />
<circle cx="205.96149" cy="587.7241" r="3.0" fill="rgb(130,0,0)" />
<circle cx="395.89044" cy="35.963654" r="3.0" fill="rgb(130,0,0)" />
<circle cx="284.5946" cy="614.8821" r="3.0" fill="rgb(130,0,0)" />
<circle cx="313.371" cy="20.073242" r="3.0" fill="rgb(130,0,0)" />
<circle cx="369.3772" cy="618.94965" r="3.0" fill="rgb(130,0,0)" />
<circle cx="228.02748" cy="28.148926" r="3.0" fill="rgb(130,0,0)" />
<circle cx="453.53458" cy="598.6566" r="3.0" fill="rgb(130,0,0)" />
<circle cx="146.81247" cy="60.48108" r="3.0" fill="rgb(130,0,0)" />
<circle cx="530.0784" cy="554.717" r="3.0" fill="rgb(130,0,0)" />
<circle cx="76.60451" cy="115.34755" r="1.0" fill="rgb(105,0,0)" />
<circle cx="592.3859" cy="489.84375" r="1.0" fill="rgb(105,0,0)" />
<circle cx="23.62741" cy="189.08287" r="1.0" fill="rgb(105,0,0)" />
<circle cx="634.7695" cy="408.5957" r="1.0" fill="rgb(105,0,0)" />
<circle cx="-7.0956116" cy="276.31406" r="1.0" fill="rgb(105,0,0)" />
<circle cx="652.98706" cy="317.06256" r="1.0" fill="rgb(105,0,0)" />
<circle cx="-12.206268" cy="370.34872" r="1.0" fill="rgb(105,0,0)" />
<circle cx="644.64954" cy="222.41055" r="1.0" fill="rgb(105,0,0)" />
<circle cx="9.648865" cy="463.68777" r="1.0" fill="rgb(105,0,0)" />
<circle cx="609.48535" cy="132.32146" r="1.0" fill="rgb(105,0,0)" />
<circle cx="57.63513" cy="548.6234" r="1.0" fill="rgb(105,0,0)" />
<circle cx="549.4369" cy="54.369263" r="1.0" fill="rgb(105,0,0)" />
<circle cx="128.724" cy="617.875" r="1.0" fill="rgb(105,0,0)" />
<circle cx="468.57422" cy="-4.6147156" r="1.0" fill="rgb(105,0,0)" />
<circle cx="217.87122" cy="665.20966" r="1.0" fill="rgb(105,0,0)" />
<circle cx="372.82733" cy="-39.135437" r="1.0" fill="rgb(105,0,0)" />
<circle cx="318.36917" cy="685.99634" r="1.0" fill="rgb(105,0,0)" />
<circle cx="269.555" cy="-45.535645" r="1.0" fill="rgb(105,0,0)" />
<circle cx="422.34998" cy="677.64294" r="1.0" fill="rgb(105,0,0)" />
<circle cx="166.97955" cy="-22.35907" r="1.0" fill="rgb(105,0,0)" />
<circle cx="521.40125" cy="639.8774" r="1.0" fill="rgb(105,0,0)" />
</svg>
