<?xml version="1.0" encoding="UTF-8" standalone="no"?>
<!DOCTYPE svg PUBLIC "-//W3C//DTD SVG 1.1//EN" "http://www.w3.org/Graphics/SVG/1.1/DTD/svg11.dtd">
<svg width="640" height="640" viewBox="0 0 640 640" version="1.1" xmlns="http://www.w3.org/2000/svg">
<rect x="0" y="0" width="640" height="640" style="fill:white;"/>
<circle cx="320.0" cy="320.0" r="64.0" fill="rgb(0,230,0)" />
<circle cx="0.0" cy="0.0" r="35.0" fill="rgb(0,130,0)" />
<circle cx="560.342" cy="244.73962" r="31.0" fill="rgb(0,105,0)" />
<circle cx="-242.3393" cy="564.8267" r="29.0" fill="rgb(0,0,255)" />
<circle cx="321.79205" cy="871.80273" r="27.0" fill="rgb(0,0,230)" />
<circle cx="3.1876526" cy="692.16864" r="27.0" fill="rgb(0,0,230)" />
<circle cx="91.616196" cy="-24.510925" r="25.0" fill="rgb(0,0,205)" />
<circle cx="557.87445" cy="333.14108" r="25.0" fill="rgb(0,0,205)" />
<circle cx="758.5083" cy="603.68884" r="25.0" fill="rgb(0,0,205)" />
<circle cx="1058.1873" cy="681.00464" r="25.0" fill="rgb(0,0,205)" />
<circle cx="213.87863" cy="-334.1396" r="23.0" fill="rgb(0,0,180)" />
<circle cx="184.33511" cy="66.30025" r="23.0" fill="rgb(0,0,180)" />
<circle cx="216.3847" cy="270.30594" r="23.0" fill="rgb(0,0,180)" />
<circle cx="329.60913" cy="550.9763" r="23.0" fill="rgb(0,0,180)" />
<circle cx="357.071" cy="634.2978" r="23.0" fill="rgb(0,0,180)" />
<circle cx="322.37372" cy="405.3993" r="21.0" fill="rgb(0,0,155)" />
<circle cx="534.8226" cy="951.3111" r="21.0" fill="rgb(0,0,155)" />
<circle cx="-176.55838" cy="-620.7869" r="21.0" fill="rgb(0,0,155)" />
<circle cx="281.8887" cy="-67.959595" r="21.0" fill="rgb(0,0,155)" />
<circle cx="437.16513" cy="320.91357" r="21.0" fill="rgb(0,0,155)" />
<circle cx="667.5176" cy="520.64355" r="21.0" fill="rgb(0,0,155)" />
<circle cx="262.34512" cy="381.3086" r="19.0" fill="rgb(0,0,130)" />
<circle cx="-306.98932" cy="794.71106" r="19.0" fill="rgb(0,0,130)" />
<circle cx="615.1399" cy="-436.9348" r="17.0" fill="rgb(0,0,105)" />
<circle cx="432.34604" cy="748.2335" r="17.0" fill="rgb(0,0,105)" />
<circle cx="620.6577" cy="748.01385" r="17.0" fill="rgb(0,0,105)" />
<circle cx="825.90906" cy="871.8307" r="17.0" fill="rgb(0,0,105)" />
<circle cx="402.15326" cy="714.133" r="17.0" fill="rgb(0,0,105)" />
<circle cx="141.0829" cy="212.8908" r="15.0" fill="rgb(255,0,0)" />
<circle cx="5.736603" cy="-131.30728" r="15.0" fill="rgb(255,0,0)" />
<circle cx="68.51291" cy="534.32983" r="15.0" fill="rgb(255,0,0)" />
<circle cx="332.1328" cy="734.22656" r="15.0" fill="rgb(255,0,0)" />
<circle cx="464.37427" cy="974.075" r="15.0" fill="rgb(255,0,0)" />
<circle cx="390.72754" cy="1119.762" r="15.0" fill="rgb(255,0,0)" />
<circle cx="-72.56851" cy="82.44461" r="13.0" fill="rgb(230,0,0)" />
<circle cx="606.5259" cy="663.63904" r="13.0" fill="rgb(230,0,0)" />
<circle cx="677.3782" cy="73.963745" r="13.0" fill="rgb(230,0,0)" />
<circle cx="796.16504" cy="360.70563" r="13.0" fill="rgb(230,0,0)" />
<circle cx="1102.1747" cy="-38.723175" r="13.0" fill="rgb(230,0,0)" />
<circle cx="115.512436" cy="480.58667" r="13.0" fill="rgb(230,0,0)" />
<circle cx="285.5772" cy="-132.96399" r="13.0" fill="rgb(230,0,0)" />
<circle cx="395.557" cy="308.81912" r="11.0" fill="rgb(205,0,0)" />
<circle cx="354.8495" cy="211.0235" r="11.0" fill="rgb(205,0,0)" />
<circle cx="418.1787" cy="198.87502" r="11.0" fill="rgb(205,0,0)" />
<circle cx="614.3334" cy="282.67178" r="11.0" fill="rgb(205,0,0)" />
<circle cx="835.12946" cy="586.6585" r="11.0" fill="rgb(205,0,0)" />
<circle cx="407.726" cy="-224.43" r="11.0" fill="rgb(205,0,0)" />
<circle cx="422.0934" cy="449.79764" r="11.0" fill="rgb(205,0,0)" />
<circle cx="-103.99454" cy="67.998" r="11.0" fill="rgb(205,0,0)" />
<circle cx="182.16716" cy="209.48172" r="11.0" fill="rgb(205,0,0)" />
<circle cx="251.0068" cy="142.61641" r="11.0" fill="rgb(205,0,0)" />
<circle cx="539.2247" cy="92.85474" r="11.0" fill="rgb(205,0,0)" />
<circle cx="668.69226" cy="374.10233" r="11.0" fill="rgb(205,0,0)" />
<circle cx="294.67343" cy="28.027466" r="11.0" fill="rgb(205,0,0)" />
<circle cx="688.1915" cy="232.95752" r="11.0" fill="rgb(205,0,0)" />
<circle cx="716.4855" cy="464.4143" r="11.0" fill="rgb(205,0,0)" />
<circle cx="-104.1926" cy="783.48145" r="11.0" fill="rgb(205,0,0)" />
<circle cx="264.57642" cy="10.679321" r="7.0" fill="rgb(180,0,0)" />
<circle cx="81.01053" cy="321.4291" r="7.0" fill="rgb(180,0,0)" />
<circle cx="31.555328" cy="666.97473" r="7.0" fill="rgb(180,0,0)" />
<circle cx="301.9319" cy="442.72925" r="7.0" fill="rgb(180,0,0)" />
<circle cx="108.81679" cy="-116.39618" r="7.0" fill="rgb(180,0,0)" />
<circle cx="247.78676" cy="430.19193" r="7.0" fill="rgb(180,0,0)" />
<circle cx="327.52805" cy="-101.49634" r="7.0" fill="rgb(180,0,0)" />
<circle cx="9.246216" cy="234.46579" r="7.0" fill="rgb(180,0,0)" />
<circle cx="322.78934" cy="142.92015" r="7.0" fill="rgb(180,0,0)" />
<circle cx="340.0279" cy="524.7586" r="5.0" fill="rgb(155,0,0)" />
<circle cx="203.91425" cy="377.35272" r="5.0" fill="rgb(155,0,0)" />
<circle cx="348.719" cy="586.78796" r="5.0" fill="rgb(155,0,0)" />
<circle cx="466.6549" cy="-248.89899" r="5.0" fill="rgb(155,0,0)" />
<circle cx="-77.66614" cy="557.0113" r="5.0" fill="rgb(155,0,0)" />
<circle cx="247.03323" cy="213.21785" r="5.0" fill="rgb(155,0,0)" />
<circle cx="155.15898" cy="535.18" r="5.0" fill="rgb(155,0,0)" />
<circle cx="476.6645" cy="337.37534" r="5.0" fill="rgb(155,0,0)" />
<circle cx="518.84045" cy="348.24713" r="5.0" fill="rgb(155,0,0)" />
<circle cx="730.2029" cy="-29.960632" r="5.0" fill="rgb(155,0,0)" />
<circle cx="-395.8423" cy="328.62814" r="5.0" fill="rgb(155,0,0)" />
<circle cx="483.31915" cy="92.004074" r="5.0" fill="rgb(155,0,0)" />
<circle cx="99.64642" cy="92.09418" r="5.0" fill="rgb(155,0,0)" />
<circle cx="82.343704" cy="237.23766" r="5.0" fill="rgb(155,0,0)" />
<circle cx="191.82668" cy="-101.98111" r="5.0" fill="rgb(155,0,0)" />
<circle cx="432.41925" cy="267.75348" r="5.0" fill="rgb(155,0,0)" />
<circle cx="596.9701" cy="209.14645" r="5.0" fill="rgb(155,0,0)" />
<circle cx="34.578705" cy="190.58492" r="5.0" fill="rgb(155,0,0)" />
<circle cx="335.9233" cy="163.59941" r="5.0" fill="rgb(155,0,0)" />
<circle cx="387.83002" cy="450.2315" r="5.0" fill="rgb(155,0,0)" />
<circle cx="285.3227" cy="385.97717" r="3.0" fill="rgb(130,0,0)" />
<circle cx="380.99536" cy="290.4703" r="3.0" fill="rgb(130,0,0)" />
<circle cx="695.44275" cy="248.9177" r="3.0" fill="rgb(130,0,0)" />
<circle cx="1017.4133" cy="220.04672" r="3.0" fill="rgb(130,0,0)" />
<circle cx="354.1297" cy="507.60464" r="3.0" fill="rgb(130,0,0)" />
<circle cx="167.96677" cy="635.1114" r="3.0" fill="rgb(130,0,0)" />
<circle cx="481.29764" cy="696.33826" r="3.0" fill="rgb(130,0,0)" />
<circle cx="742.35315" cy="869.056" r="3.0" fill="rgb(130,0,0)" />
<circle cx="-408.87158" cy="-325.63202" r="3.0" fill="rgb(130,0,0)" />
<circle cx="618.12054" cy="18.157776" r="3.0" fill="rgb(130,0,0)" />
<circle cx="110.85828" cy="339.46686" r="3.0" fill="rgb(130,0,0)" />
<circle cx="429.6487" cy="601.04065" r="3.0" fill="rgb(130,0,0)" />
<circle cx="184.10397" cy="232.78162" r="3.0" fill="rgb(130,0,0)" />
<circle cx="183.83066" cy="494.4885" r="3.0" fill="rgb(130,0,0)" />
<circle cx="154.88612" cy="377.8855" r="3.0" fill="rgb(130,0,0)" />
<circle cx="473.95792" cy="412.95898" r="3.0" fill="rgb(130,0,0)" />
<circle cx="323.1552" cy="430.18427" r="3.0" fill="rgb(130,0,0)" />
<circle cx="272.1761" cy="591.62427" r="3.0" fill="rgb(130,0,0)" />
<circle cx="140.60365" cy="400.92178" r="3.0" fill="rgb(130,0,0)" />
<circle cx="272.60315" cy="608.45496" r="3.0" fill="rgb(130,0,0)" />
<circle cx="242.47505" cy="829.006" r="1.0" fill="rgb(105,0,0)" />
<circle cx="525.93256" cy="1149.762" r="1.0" fill="rgb(105,0,0)" />
<circle cx="842.3931" cy="1394.5442" r="1.0" fill="rgb(105,0,0)" />
<circle cx="-328.37897" cy="1708.6681" r="1.0" fill="rgb(105,0,0)" />
<circle cx="13.037384" cy="2026.3713" r="1.0" fill="rgb(105,0,0)" />
<circle cx="308.21878" cy="-1485.4087" r="1.0" fill="rgb(105,0,0)" />
<circle cx="103.622086" cy="1129.1663" r="1.0" fill="rgb(105,0,0)" />
<circle cx="359.05295" cy="536.8562" r="1.0" fill="rgb(105,0,0)" />
<circle cx="-31.528076" cy="-217.41864" r="1.0" fill="rgb(105,0,0)" />
<circle cx="243.8179" cy="-195.43329" r="1.0" fill="rgb(105,0,0)" />
<circle cx="495.84528" cy="131.45708" r="1.0" fill="rgb(105,0,0)" />
<circle cx="368.29443" cy="453.21204" r="1.0" fill="rgb(105,0,0)" />
<circle cx="659.0861" cy="462.7185" r="1.0" fill="rgb(105,0,0)" />
<circle cx="463.70917" cy="210.79643" r="1.0" fill="rgb(105,0,0)" />
<circle cx="659.6555" cy="162.70285" r="1.0" fill="rgb(105,0,0)" />
<circle cx="92.9557" cy="480.3369" r="1.0" fill="rgb(105,0,0)" />
<circle cx="392.1391" cy="-159.80823" r="1.0" fill="rgb(105,0,0)" />
<circle cx="268.6017" cy="425.07217" r="1.0" fill="rgb(105,0,0)" />
<circle cx="-247.10889" cy="81.60768" r="1.0" fill="rgb(105,0,0)" />
<circle cx="75.40332" cy="398.3806" r="1.0" fill="rgb(105,0,0)" />
<circle cx="586.1282" cy="306.6471" r="1.0" fill="rgb(105,0,0)" />
</svg>
