<?xml version="1.0" encoding="UTF-8" standalone="no"?>
<!DOCTYPE svg PUBLIC "-//W3C//DTD SVG 1.1//EN" "http://www.w3.org/Graphics/SVG/1.1/DTD/svg11.dtd">
<svg width="360" height="360" viewBox="0 0 360 360" version="1.1" xmlns="http://www.w3.org/2000/svg">
<rect x="0" y="0" width="360" height="360" style="fill:white;"/>
<circle cx="180.0" cy="180.0" r="46.98" fill="rgb(37,229,242)" />
<circle cx="129.03586" cy="150.67259" r="11.6" fill="rgb(239,143,229)" />
<circle cx="193.54996" cy="123.29648" r="11.0" fill="rgb(25,3,254)" />
<circle cx="144.83699" cy="225.36874" r="10.18" fill="rgb(169,46,214)" />
<circle cx="235.69193" cy="193.04794" r="10.0" fill="rgb(174,221,47)" />
<circle cx="132.23135" cy="205.81949" r="7.06" fill="rgb(133,178,133)" />
<circle cx="230.65285" cy="161.28398" r="6.7" fill="rgb(18,104,41)" />
<circle cx="127.50612" cy="191.31737" r="6.48" fill="rgb(241,16,204)" />
<circle cx="161.19574" cy="230.19324" r="6.42" fill="rgb(224,107,171)" />
<circle cx="233.2664" cy="176.22504" r="6.2" fill="rgb(8,161,84)" />
<circle cx="127.03319" cy="176.24146" r="5.8599997" fill="rgb(95,5,68)" />
<circle cx="168.68701" cy="128.63098" r="5.2" fill="rgb(97,26,171)" />
<circle cx="217.18365" cy="142.65479" r="5.16" fill="rgb(101,247,181)" />
<circle cx="225.919" cy="204.8251" r="4.74" fill="rgb(253,244,130)" />
<circle cx="183.92804" cy="232.15228" r="4.58" fill="rgb(98,55,21)" />
<circle cx="216.72649" cy="216.24535" r="4.38" fill="rgb(250,119,127)" />
<circle cx="198.5542" cy="229.5394" r="4.2200003" fill="rgb(188,230,238)" />
<circle cx="154.49667" cy="133.31146" r="4.1400003" fill="rgb(115,135,254)" />
<circle cx="205.5555" cy="133.22601" r="4.02" fill="rgb(48,77,115)" />
<circle cx="213.82286" cy="226.99388" r="3.8400002" fill="rgb(21,218,86)" />
<circle cx="142.04366" cy="141.87186" r="3.8400002" fill="rgb(149,87,255)" />
<circle cx="226.07913" cy="216.04114" r="3.6599998" fill="rgb(55,0,104)" />
<circle cx="204.84389" cy="224.53966" r="3.5" fill="rgb(187,162,71)" />
<circle cx="148.93765" cy="139.17328" r="3.26" fill="rgb(106,22,217)" />
<circle cx="175.92436" cy="234.04654" r="3.24" fill="rgb(159,103,73)" />
<circle cx="228.03874" cy="145.74683" r="3.2" fill="rgb(214,203,77)" />
<circle cx="177.13725" cy="121.16961" r="3.2" fill="rgb(183,53,150)" />
<circle cx="191.19296" cy="238.13225" r="3.08" fill="rgb(239,29,237)" />
<circle cx="122.28827" cy="165.93883" r="2.98" fill="rgb(30,163,154)" />
<circle cx="160.6177" cy="123.74543" r="2.94" fill="rgb(188,7,138)" />
<circle cx="191.27507" cy="229.12263" r="2.8600001" fill="rgb(94,97,224)" />
<circle cx="216.92625" cy="133.21739" r="2.8" fill="rgb(229,235,124)" />
<circle cx="207.26375" cy="233.22339" r="2.78" fill="rgb(197,43,74)" />
<circle cx="120.05859" cy="182.65094" r="2.72" fill="rgb(237,143,202)" />
<circle cx="145.32513" cy="130.91168" r="2.7" fill="rgb(68,84,4)" />
<circle cx="165.41844" cy="238.7165" r="2.68" fill="rgb(234,12,241)" />
<circle cx="221.46115" cy="223.9219" r="2.68" fill="rgb(25,14,54)" />
<circle cx="239.26228" cy="168.86124" r="2.68" fill="rgb(146,36,164)" />
<circle cx="210.04282" cy="139.03575" r="2.6399999" fill="rgb(175,187,218)" />
<circle cx="234.32477" cy="152.4749" r="2.62" fill="rgb(70,190,13)" />
<circle cx="122.61862" cy="199.48686" r="2.62" fill="rgb(88,46,136)" />
<circle cx="232.5996" cy="210.89148" r="2.6" fill="rgb(128,0,50)" />
<circle cx="182.42938" cy="241.05168" r="2.58" fill="rgb(127,206,196)" />
<circle cx="161.79788" cy="132.6801" r="2.58" fill="rgb(14,143,46)" />
<circle cx="168.92522" cy="119.60704" r="2.56" fill="rgb(68,13,123)" />
<circle cx="224.9082" cy="137.98212" r="2.54" fill="rgb(204,170,92)" />
<circle cx="199.58182" cy="238.5102" r="2.5" fill="rgb(226,176,150)" />
<circle cx="137.43329" cy="134.09972" r="2.46" fill="rgb(166,94,243)" />
<circle cx="242.16115" cy="177.80197" r="2.46" fill="rgb(17,29,60)" />
<circle cx="211.68521" cy="126.5916" r="2.46" fill="rgb(83,171,76)" />
<circle cx="152.22278" cy="124.57053" r="2.46" fill="rgb(4,210,148)" />
<circle cx="118.44905" cy="173.43567" r="2.46" fill="rgb(7,126,77)" />
<circle cx="173.04182" cy="242.61456" r="2.44" fill="rgb(15,185,39)" />
<circle cx="113.94636" cy="190.60788" r="2.42" fill="rgb(122,53,96)" />
<circle cx="153.27728" cy="241.22203" r="2.42" fill="rgb(133,249,90)" />
<circle cx="217.0227" cy="235.48161" r="2.42" fill="rgb(223,133,85)" />
<circle cx="125.59506" cy="216.65329" r="2.42" fill="rgb(114,29,164)" />
<circle cx="231.50977" cy="223.31322" r="2.4" fill="rgb(162,138,95)" />
<circle cx="244.18216" cy="160.0879" r="2.4" fill="rgb(16,188,236)" />
<circle cx="118.99904" cy="208.89865" r="2.3600001" fill="rgb(82,194,246)" />
<circle cx="236.56259" cy="142.61667" r="2.34" fill="rgb(78,131,160)" />
<circle cx="179.10524" cy="112.30591" r="2.34" fill="rgb(203,231,186)" />
<circle cx="114.351395" cy="161.52026" r="2.32" fill="rgb(10,165,52)" />
<circle cx="129.05457" cy="225.1904" r="2.32" fill="rgb(23,225,66)" />
<circle cx="190.48505" cy="247.18678" r="2.32" fill="rgb(8,198,159)" />
<circle cx="242.10934" cy="207.4379" r="2.32" fill="rgb(104,196,48)" />
<circle cx="224.25243" cy="127.84367" r="2.3" fill="rgb(237,223,135)" />
<circle cx="160.05086" cy="114.67832" r="2.3" fill="rgb(74,153,13)" />
<circle cx="247.89685" cy="189.07019" r="2.28" fill="rgb(114,157,171)" />
<circle cx="142.26492" cy="122.35215" r="2.26" fill="rgb(136,177,31)" />
<circle cx="111.20265" cy="180.60483" r="2.26" fill="rgb(211,230,207)" />
<circle cx="143.39087" cy="238.13315" r="2.26" fill="rgb(22,20,13)" />
<circle cx="209.09494" cy="242.12442" r="2.26" fill="rgb(70,121,80)" />
<circle cx="220.20691" cy="209.21463" r="2.26" fill="rgb(229,238,153)" />
<circle cx="113.537224" cy="199.97649" r="2.24" fill="rgb(230,64,56)" />
<circle cx="160.92717" cy="246.6237" r="2.24" fill="rgb(40,238,37)" />
<circle cx="225.69078" cy="231.97107" r="2.24" fill="rgb(224,85,255)" />
<circle cx="248.32011" cy="169.6476" r="2.24" fill="rgb(145,61,73)" />
<circle cx="208.16147" cy="117.00848" r="2.24" fill="rgb(250,72,61)" />
<circle cx="247.5948" cy="199.67493" r="2.22" fill="rgb(151,89,164)" />
<circle cx="233.0021" cy="133.81703" r="2.22" fill="rgb(106,95,219)" />
<circle cx="169.79008" cy="110.54643" r="2.22" fill="rgb(224,122,35)" />
<circle cx="180.30515" cy="249.89934" r="2.22" fill="rgb(83,66,181)" />
<circle cx="238.89874" cy="217.45634" r="2.22" fill="rgb(16,239,222)" />
<circle cx="243.25081" cy="150.71817" r="2.22" fill="rgb(94,179,226)" />
<circle cx="127.20442" cy="134.80182" r="2.22" fill="rgb(47,173,15)" />
<circle cx="133.84955" cy="233.42747" r="2.2" fill="rgb(45,73,247)" />
<circle cx="199.99411" cy="247.60538" r="2.2" fill="rgb(93,38,125)" />
<circle cx="218.31104" cy="120.34201" r="2.18" fill="rgb(27,168,67)" />
<circle cx="150.54068" cy="115.619965" r="2.18" fill="rgb(233,91,160)" />
<circle cx="110.008125" cy="170.0186" r="2.18" fill="rgb(138,52,241)" />
<circle cx="247.78421" cy="150.0649" r="2.16" fill="rgb(85,173,171)" />
<circle cx="191.41902" cy="106.886345" r="2.16" fill="rgb(185,41,1)" />
<circle cx="169.54881" cy="251.0353" r="2.16" fill="rgb(110,58,57)" />
<circle cx="200.28598" cy="111.43813" r="2.16" fill="rgb(230,198,62)" />
<circle cx="133.3331" cy="125.96149" r="2.16" fill="rgb(19,98,215)" />
<circle cx="251.0" cy="180.00429" r="2.16" fill="rgb(63,251,64)" />
<circle cx="112.67686" cy="148.09633" r="2.14" fill="rgb(100,189,63)" />
<circle cx="116.864" cy="219.35995" r="2.14" fill="rgb(59,172,37)" />
<circle cx="179.00906" cy="254.2934" r="2.14" fill="rgb(244,197,202)" />
<circle cx="241.89691" cy="220.91959" r="2.14" fill="rgb(43,66,186)" />
<circle cx="124.72151" cy="130.95412" r="2.14" fill="rgb(122,33,80)" />
<circle cx="158.46512" cy="250.48361" r="2.12" fill="rgb(233,242,65)" />
<circle cx="227.60988" cy="236.12717" r="2.12" fill="rgb(115,103,65)" />
<circle cx="252.854" cy="170.27654" r="2.12" fill="rgb(156,91,9)" />
<circle cx="211.13875" cy="113.532425" r="2.12" fill="rgb(36,148,255)" />
<circle cx="251.43817" cy="202.17267" r="2.1" fill="rgb(63,78,255)" />
<circle cx="237.17934" cy="131.93115" r="2.1" fill="rgb(135,18,31)" />
<circle cx="170.45837" cy="106.012726" r="2.1" fill="rgb(143,198,154)" />
<circle cx="108.95847" cy="199.98857" r="2.1" fill="rgb(94,178,242)" />
<circle cx="140.94708" cy="117.96969" r="2.1" fill="rgb(57,29,31)" />
<circle cx="106.8029" cy="179.34767" r="2.1" fill="rgb(187,49,227)" />
<circle cx="139.9573" cy="241.1571" r="2.1" fill="rgb(112,247,99)" />
<circle cx="209.78598" cy="246.64679" r="2.1" fill="rgb(61,207,11)" />
<circle cx="221.8038" cy="117.36988" r="2.08" fill="rgb(7,44,58)" />
<circle cx="149.92526" cy="111.07576" r="2.08" fill="rgb(106,140,96)" />
<circle cx="105.85154" cy="168.08296" r="2.08" fill="rgb(244,16,55)" />
<circle cx="129.97627" cy="235.88046" r="2.08" fill="rgb(216,205,143)" />
<circle cx="199.96721" cy="252.18948" r="2.08" fill="rgb(139,109,162)" />
<circle cx="252.0759" cy="190.93039" r="2.08" fill="rgb(203,127,123)" />
<circle cx="219.65793" cy="244.2456" r="2.06" fill="rgb(29,10,244)" />
<circle cx="255.3881" cy="181.33926" r="2.06" fill="rgb(239,97,89)" />
<circle cx="228.07436" cy="125.331024" r="2.06" fill="rgb(77,30,188)" />
<circle cx="159.99983" cy="110.105194" r="2.06" fill="rgb(4,92,99)" />
<circle cx="189.89545" cy="251.72058" r="2.04" fill="rgb(185,12,5)" />
<circle cx="245.60657" cy="210.38203" r="2.04" fill="rgb(72,155,134)" />
<circle cx="180.32344" cy="107.90073" r="2.02" fill="rgb(79,68,103)" />
</svg>
